<svg xmlns="http://www.w3.org/2000/svg" xmlns:xlink="http://www.w3.org/1999/xlink" width="500" zoomAndPan="magnify" viewBox="0 0 375 374.999991" height="500" preserveAspectRatio="xMidYMid meet" version="1.0"><defs><g/></defs><g fill="#ff914d" fill-opacity="1"><g transform="translate(86.7545, 177.85435)"><g><path d="M 59.449219 0 C 94.304688 0 106.675781 -22.933594 106.675781 -44.058594 C 106.675781 -60.355469 100.640625 -75.441406 82.382812 -79.667969 C 96.867188 -85.402344 99.886719 -101.242188 99.734375 -112.558594 C 99.433594 -134.289062 86.910156 -150.734375 52.507812 -150.734375 L 2.261719 -150.734375 L 2.261719 0 Z M 47.527344 -59.597656 L 53.714844 -59.597656 C 59.148438 -59.597656 63.671875 -58.089844 63.824219 -52.507812 C 63.976562 -46.625 58.996094 -45.265625 53.5625 -45.265625 L 47.527344 -45.265625 Z M 54.921875 -105.46875 C 58.695312 -105.46875 60.203125 -103.507812 60.203125 -101.242188 C 60.203125 -99.433594 59.148438 -97.320312 54.769531 -97.320312 L 47.527344 -97.320312 L 47.527344 -105.46875 Z M 54.921875 -105.46875 "/></g></g></g><g fill="#ff914d" fill-opacity="1"><g transform="translate(195.689063, 177.85435)"><g><path d="M 2.261719 -150.734375 L 2.261719 0 L 83.136719 0 L 83.136719 -45.265625 L 47.527344 -45.265625 L 47.527344 -150.886719 Z M 2.261719 -150.734375 "/></g></g></g><g fill="#ff914d" fill-opacity="1"><g transform="translate(7.840443, 333.10434)"><g><path d="M 47.527344 -45.566406 L 2.261719 -45.566406 L 2.261719 0.152344 L 47.527344 -0.152344 Z M 47.527344 -45.566406 "/></g></g></g><g fill="#ff914d" fill-opacity="1"><g transform="translate(57.633408, 333.10434)"><g/></g></g><g fill="#ff914d" fill-opacity="1"><g transform="translate(105.914655, 333.10434)"><g/></g></g><g fill="#38b6ff" fill-opacity="1"><g transform="translate(154.195902, 333.10434)"><g><path d="M 55.527344 2.261719 C 97.320312 2.261719 108.789062 -28.820312 108.789062 -75.59375 C 108.789062 -122.066406 97.320312 -153.148438 55.527344 -153.148438 C 13.730469 -153.148438 2.261719 -122.066406 2.261719 -75.59375 C 2.261719 -28.820312 13.730469 2.261719 55.527344 2.261719 Z M 55.527344 -107.277344 C 61.710938 -107.277344 63.523438 -94.753906 63.671875 -73.933594 C 63.824219 -55.675781 61.710938 -43.453125 55.527344 -43.453125 C 49.339844 -43.453125 47.527344 -55.675781 47.527344 -73.933594 C 47.527344 -94.753906 49.339844 -107.128906 55.527344 -107.277344 Z M 55.527344 -107.277344 "/></g></g></g><g fill="#38b6ff" fill-opacity="1"><g transform="translate(265.24277, 333.10434)"><g><path d="M 2.261719 -76.648438 C 2.261719 -30.628906 28.515625 0 80.722656 0 L 92.039062 0 L 92.039062 -75.441406 L 61.710938 -75.441406 L 61.710938 -52.054688 C 52.355469 -56.734375 46.472656 -64.878906 46.472656 -75.441406 C 46.472656 -94.304688 55.527344 -105.621094 80.722656 -105.621094 L 92.039062 -105.621094 L 92.039062 -150.886719 L 80.722656 -150.886719 C 28.515625 -150.886719 2.261719 -122.519531 2.261719 -76.648438 Z M 2.261719 -76.648438 "/></g></g></g></svg>